# Blender 4.1.1
# www.blender.org
mtllib end.mtl
o Cube
v -6.141390 -4.116469 1.724739
v 5.387865 -4.116469 1.724733
v -6.141389 -4.116469 0.584234
v 5.387865 -4.116469 0.584228
v -6.141389 4.476182 1.724739
v 5.387864 4.476183 1.724733
v -6.141390 4.476183 0.584235
v 5.387865 4.476183 0.584228
vn -1.0000 -0.0000 -0.0000
vn -0.0000 -0.0000 -1.0000
vn -0.0000 1.0000 -0.0000
vn 1.0000 -0.0000 -0.0000
vn -0.0000 -1.0000 -0.0000
vn -0.0000 -0.0000 1.0000
vt 1.000000 0.000000
vt 0.000000 1.000000
vt 0.000000 0.000000
vt 1.000000 1.000000
s 0
usemtl Material.003
f 5/1/1 3/2/1 1/3/1
f 4/3/2 7/4/2 8/2/2
f 7/1/3 6/2/3 8/3/3
f 6/3/4 4/4/4 8/2/4
f 2/3/5 3/4/5 4/2/5
f 5/1/1 7/4/1 3/2/1
f 4/3/2 3/1/2 7/4/2
f 7/1/3 5/4/3 6/2/3
f 6/3/4 2/1/4 4/4/4
f 2/3/5 1/1/5 3/4/5
usemtl Material.005
f 5/1/6 2/2/6 

